# xmcd
#
# Track frame offsets: 
#        150
#        35697
#        57612
#        87965
#        104847
#        137522
#        157740
#
# Disc length: 2680 seconds
#
# Revision: 0
# Processed by: cddbd v1.5.2PL0 Copyright (c) Steve Scherf et al.
# Submitted via: ExactAudioCopy v0.95b4
#
DISCID=5b0a7607
DTITLE=The Move - Looking On (Japan)
DYEAR=1970
DGENRE=Rock and Roll
TTITLE0=Looking On
TTITLE1=Turkish Tram Conductor Blues
TTITLE2=What?
TTITLE3=When Alice Comes Back to the Farm
TTITLE4=Open Up Said The World At The Door
TTITLE5=Brontosaurus
TTITLE6=Feel Too Good
EXTD=
EXTT0=
EXTT1=
EXTT2=
EXTT3=
EXTT4=
EXTT5=
EXTT6=
PLAYORDER=
